<svg xmlns="http://www.w3.org/2000/svg" width="227.763" height="223.505" viewBox="0 0 227.763 223.505">
  <g id="Group_15" data-name="Group 15" transform="translate(-1608.118 -89)">
    <g id="Group_10" data-name="Group 10" transform="translate(400 -354)">
      <path id="Path_36" data-name="Path 36" d="M113.882,0c62.9,0,113.882,50.033,113.882,111.752S176.777,223.5,113.882,223.5,0,173.472,0,111.752,50.987,0,113.882,0Z" transform="translate(1208.118 443)" fill="#fff"/>
      <g id="Group_9" data-name="Group 9" transform="translate(226.959 54.878)">
        <path id="Path_33" data-name="Path 33" d="M612.482,674.93a57.951,57.951,0,0,0-7.844,2.112,31.319,31.319,0,0,0-6.034,3.017" transform="translate(450 -118.898)" fill="none" stroke="#606060" stroke-width="7"/>
        <path id="Path_25" data-name="Path 25" d="M667.461,530.122a61.225,61.225,0,0,1-.424,12.317,16.121,16.121,0,0,1-3.272,7.519l-22.927,21.721s-7.132,5.948-10.507,10.907-3.481,11.139-2.727,12.937,1.034,2.869,4.409,8.412a41.427,41.427,0,0,0,8.824,9.753l8.145,8.522" transform="translate(445.013 -111)" fill="none" stroke="#e76f00" stroke-width="7"/>
        <path id="Path_26" data-name="Path 26" d="M686.747,564.514,657.559,579.3a16.435,16.435,0,0,0-5.663,7.269c-1.721,4.652-1.219,11.34-1.219,11.34a48.854,48.854,0,0,0,3.828,8.708c2.2,3.633,3.361,3.826,4.626,6.039a10.688,10.688,0,0,1,1.373,8.265,13.361,13.361,0,0,1-4.092,6.558" transform="translate(442.493 -113.123)" fill="none" stroke="#e76f00" stroke-width="7"/>
        <path id="Path_27" data-name="Path 27" d="M613.263,629.373c.045-.179,15.753-6.114,15.753-6.114" transform="translate(447.457 -114.811)" fill="none" stroke="#606060" stroke-width="7"/>
        <path id="Path_28" data-name="Path 28" d="M602.686,629.6a7.374,7.374,0,0,0-2.244,2.409,1.952,1.952,0,0,0,.726,1.964,112.3,112.3,0,0,0,15.159,3.023,162.219,162.219,0,0,0,17.24.993s13.109-.066,23.26-.993a127.642,127.642,0,0,0,17.346-2.715,19.472,19.472,0,0,0,5.672-1.423,16.553,16.553,0,0,0,4.51-3.258" transform="translate(450 -115.126)" fill="none" stroke="#606060" stroke-width="7"/>
        <path id="Path_29" data-name="Path 29" d="M689.8,624.416a13.03,13.03,0,0,1,12.376,1.814,14.42,14.42,0,0,1,2.773,4.463,12.511,12.511,0,0,1,.226,5.443l-4.061,6.672" transform="translate(438.289 -119.754)" fill="none" stroke="#606060" stroke-width="7"/>
        <path id="Path_30" data-name="Path 30" d="M685.274,655.222a75.3,75.3,0,0,0,11.216-3.806c4.96-2.263,5.077-2.425,8.625-5.245a27.1,27.1,0,0,0,5.569-6.034" transform="translate(439.289 -115.754)" fill="none" stroke="#606060" stroke-width="7"/>
        <path id="Path_31" data-name="Path 31" d="M616.343,645.35a5.237,5.237,0,0,0-2.15,2.421,3.01,3.01,0,0,0,.836,3.276c.761.806,4.977,2.71,10.879,3.881s5.343,1.066,12.015,1.291a104.708,104.708,0,0,0,15.45-.292c6.911-.54,15.974-2.028,15.974-2.028l9.226-3.073" transform="translate(445.347 -115.856)" fill="none" stroke="#606060" stroke-width="7"/>
        <path id="Path_32" data-name="Path 32" d="M620.552,663.617s-3.067,3.591-.6,5.732,9.21,4.865,19.826,5.921c2.728.271,11.4.171,14.14,0,5.618-.348,13.934-2.611,16.794-3.425.2-.057-.895.484.481-.14s5.022-2.356,5.022-2.356" transform="translate(445.072 -116.653)" fill="none" stroke="#606060" stroke-width="7"/>
        <path id="Path_34" data-name="Path 34" d="M587.274,679.761c-.012,0-5.417,3.829-.156,5.939s21.361,3.861,21.361,3.861,18,1.412,33.663,1.2,16.478-.646,29.137-2.959c9.811-1.793,21.639-8.529,21.639-8.529" transform="translate(452 -116.898)" fill="none" stroke="#606060" stroke-width="7"/>
        <path id="Path_35" data-name="Path 35" d="M610.725,695.436a82.153,82.153,0,0,0,17.138,3.824,195.034,195.034,0,0,0,19.714.8s12.032-.038,22.67-.8,19.953-2.336,19.953-2.336a58.669,58.669,0,0,0,11.867-3.336,31.572,31.572,0,0,0,9.372-6.56" transform="translate(441.827 -113.139)" fill="none" stroke="#606060" stroke-width="7"/>
      </g>
    </g>
  </g>
</svg>
