<?xml version="1.0" standalone="no"?>
<svg xmlns:xlink="http://www.w3.org/1999/xlink" id="wave" style="transform:rotate(0deg); transition: 0.3s" viewBox="0 0 1440 410" version="1.1" xmlns="http://www.w3.org/2000/svg"><defs><linearGradient id="sw-gradient-0" x1="0" x2="0" y1="1" y2="0"><stop stop-color="rgba(98.231, 180.186, 171.858, 1)" offset="0%"/><stop stop-color="rgba(145.256, 234.829, 231.795, 1)" offset="100%"/></linearGradient></defs><path style="transform:translate(0, 0px); opacity:1" fill="url(#sw-gradient-0)" d="M0,41L80,88.8C160,137,320,232,480,239.2C640,246,800,164,960,150.3C1120,137,1280,191,1440,239.2C1600,287,1760,328,1920,348.5C2080,369,2240,369,2400,307.5C2560,246,2720,123,2880,123C3040,123,3200,246,3360,307.5C3520,369,3680,369,3840,307.5C4000,246,4160,123,4320,68.3C4480,14,4640,27,4800,61.5C4960,96,5120,150,5280,177.7C5440,205,5600,205,5760,170.8C5920,137,6080,68,6240,82C6400,96,6560,191,6720,205C6880,219,7040,150,7200,157.2C7360,164,7520,246,7680,239.2C7840,232,8000,137,8160,143.5C8320,150,8480,260,8640,280.2C8800,301,8960,232,9120,225.5C9280,219,9440,273,9600,287C9760,301,9920,273,10080,273.3C10240,273,10400,301,10560,280.2C10720,260,10880,191,11040,184.5C11200,178,11360,232,11440,259.7L11520,287L11520,410L11440,410C11360,410,11200,410,11040,410C10880,410,10720,410,10560,410C10400,410,10240,410,10080,410C9920,410,9760,410,9600,410C9440,410,9280,410,9120,410C8960,410,8800,410,8640,410C8480,410,8320,410,8160,410C8000,410,7840,410,7680,410C7520,410,7360,410,7200,410C7040,410,6880,410,6720,410C6560,410,6400,410,6240,410C6080,410,5920,410,5760,410C5600,410,5440,410,5280,410C5120,410,4960,410,4800,410C4640,410,4480,410,4320,410C4160,410,4000,410,3840,410C3680,410,3520,410,3360,410C3200,410,3040,410,2880,410C2720,410,2560,410,2400,410C2240,410,2080,410,1920,410C1760,410,1600,410,1440,410C1280,410,1120,410,960,410C800,410,640,410,480,410C320,410,160,410,80,410L0,410Z"/></svg>