<?xml version="1.0" standalone="no"?>
<svg xmlns:xlink="http://www.w3.org/1999/xlink" id="wave" style="transform:rotate(0deg); transition: 0.3s" viewBox="0 0 1440 340" version="1.1" xmlns="http://www.w3.org/2000/svg"><defs><linearGradient id="sw-gradient-0" x1="0" x2="0" y1="1" y2="0"><stop stop-color="rgba(98.231, 180.186, 171.858, 1)" offset="0%"/><stop stop-color="rgba(145.256, 234.829, 231.795, 1)" offset="100%"/></linearGradient></defs><path style="transform:translate(0, 0px); opacity:1" fill="url(#sw-gradient-0)" d="M0,68L80,62.3C160,57,320,45,480,85C640,125,800,215,960,215.3C1120,215,1280,125,1440,124.7C1600,125,1760,215,1920,221C2080,227,2240,147,2400,141.7C2560,136,2720,204,2880,232.3C3040,261,3200,249,3360,226.7C3520,204,3680,170,3840,164.3C4000,159,4160,181,4320,170C4480,159,4640,113,4800,119C4960,125,5120,181,5280,187C5440,193,5600,147,5760,130.3C5920,113,6080,125,6240,136C6400,147,6560,159,6720,147.3C6880,136,7040,102,7200,119C7360,136,7520,204,7680,243.7C7840,283,8000,295,8160,289C8320,283,8480,261,8640,255C8800,249,8960,261,9120,221C9280,181,9440,91,9600,68C9760,45,9920,91,10080,124.7C10240,159,10400,181,10560,198.3C10720,215,10880,227,11040,221C11200,215,11360,193,11440,181.3L11520,170L11520,340L11440,340C11360,340,11200,340,11040,340C10880,340,10720,340,10560,340C10400,340,10240,340,10080,340C9920,340,9760,340,9600,340C9440,340,9280,340,9120,340C8960,340,8800,340,8640,340C8480,340,8320,340,8160,340C8000,340,7840,340,7680,340C7520,340,7360,340,7200,340C7040,340,6880,340,6720,340C6560,340,6400,340,6240,340C6080,340,5920,340,5760,340C5600,340,5440,340,5280,340C5120,340,4960,340,4800,340C4640,340,4480,340,4320,340C4160,340,4000,340,3840,340C3680,340,3520,340,3360,340C3200,340,3040,340,2880,340C2720,340,2560,340,2400,340C2240,340,2080,340,1920,340C1760,340,1600,340,1440,340C1280,340,1120,340,960,340C800,340,640,340,480,340C320,340,160,340,80,340L0,340Z"/></svg>