<?xml version="1.0" standalone="no"?>
<svg xmlns:xlink="http://www.w3.org/1999/xlink" id="wave" style="transform:rotate(0deg); transition: 0.3s" viewBox="0 0 1440 490" version="1.1" xmlns="http://www.w3.org/2000/svg"><defs><linearGradient id="sw-gradient-0" x1="0" x2="0" y1="1" y2="0"><stop stop-color="rgba(98.231, 180.186, 171.858, 1)" offset="0%"/><stop stop-color="rgba(145.256, 234.829, 231.795, 1)" offset="100%"/></linearGradient></defs><path style="transform:translate(0, 0px); opacity:1" fill="url(#sw-gradient-0)" d="M0,294L80,294C160,294,320,294,480,253.2C640,212,800,131,960,106.2C1120,82,1280,114,1440,147C1600,180,1760,212,1920,204.2C2080,196,2240,147,2400,147C2560,147,2720,196,2880,220.5C3040,245,3200,245,3360,269.5C3520,294,3680,343,3840,375.7C4000,408,4160,425,4320,392C4480,359,4640,278,4800,261.3C4960,245,5120,294,5280,285.8C5440,278,5600,212,5760,212.3C5920,212,6080,278,6240,261.3C6400,245,6560,147,6720,138.8C6880,131,7040,212,7200,220.5C7360,229,7520,163,7680,130.7C7840,98,8000,98,8160,147C8320,196,8480,294,8640,343C8800,392,8960,392,9120,359.3C9280,327,9440,261,9600,196C9760,131,9920,65,10080,65.3C10240,65,10400,131,10560,138.8C10720,147,10880,98,11040,81.7C11200,65,11360,82,11440,89.8L11520,98L11520,490L11440,490C11360,490,11200,490,11040,490C10880,490,10720,490,10560,490C10400,490,10240,490,10080,490C9920,490,9760,490,9600,490C9440,490,9280,490,9120,490C8960,490,8800,490,8640,490C8480,490,8320,490,8160,490C8000,490,7840,490,7680,490C7520,490,7360,490,7200,490C7040,490,6880,490,6720,490C6560,490,6400,490,6240,490C6080,490,5920,490,5760,490C5600,490,5440,490,5280,490C5120,490,4960,490,4800,490C4640,490,4480,490,4320,490C4160,490,4000,490,3840,490C3680,490,3520,490,3360,490C3200,490,3040,490,2880,490C2720,490,2560,490,2400,490C2240,490,2080,490,1920,490C1760,490,1600,490,1440,490C1280,490,1120,490,960,490C800,490,640,490,480,490C320,490,160,490,80,490L0,490Z"/></svg>