<svg xmlns="http://www.w3.org/2000/svg" xmlns:xlink="http://www.w3.org/1999/xlink" width="413.544" height="186.14" viewBox="0 0 413.544 186.14">
  <defs>
    <linearGradient id="linear-gradient" x1="0.5" x2="0.5" y2="1" gradientUnits="objectBoundingBox">
      <stop offset="0" stop-color="#ffa188"/>
      <stop offset="1" stop-color="#ffa4a4"/>
    </linearGradient>
    <linearGradient id="linear-gradient-2" x1="0.5" x2="0.5" y2="1" gradientUnits="objectBoundingBox">
      <stop offset="0" stop-color="#0070ba"/>
      <stop offset="1" stop-color="#29a8e0"/>
    </linearGradient>
    <linearGradient id="linear-gradient-3" x1="0.5" x2="0.5" y2="1" gradientUnits="objectBoundingBox">
      <stop offset="0" stop-color="#55dfc7"/>
      <stop offset="1" stop-color="#16c0d4"/>
    </linearGradient>
  </defs>
  <g id="Group_18" data-name="Group 18" transform="translate(-1829.459 -2220.813)">
    <g id="Group_17" data-name="Group 17" transform="translate(1638 2057)">
      <path id="Path_16" data-name="Path 16" d="M805.459,792.682V932.632l75.409,34.622,73.816-34.622V792.682Z" transform="translate(-609 -623.574)" stroke="#fff" stroke-width="10" fill="url(#linear-gradient)"/>
      <path id="Path_15" data-name="Path 15" d="M907.282,826.635H841.476v36.3h62.957V899.8l-30.2,18.716-32.76-15.666V886.713" transform="translate(-609.44 -616.192)" fill="none" stroke="#fff" stroke-width="7"/>
      <path id="Path_16-2" data-name="Path 16" d="M805.459,792.682V932.632l75.409,34.622,73.816-34.622V792.682Z" transform="translate(-354.681 -623.081)" stroke="#fff" stroke-width="10" fill="url(#linear-gradient-2)"/>
      <path id="Path_17" data-name="Path 17" d="M629.732,665.38,625.9,794.915l75.147,45.824,78.182-43.116L772.919,665.38Z" transform="translate(-309.855 -496.567)" stroke="#fff" stroke-width="10" fill="url(#linear-gradient-3)"/>
      <g id="Group_16" data-name="Group 16" transform="translate(476.659 214.859)">
        <path id="Path_10" data-name="Path 10" d="M767.191,748.442h0c0,.012.22,6.054,0,8.731a17.334,17.334,0,0,1-6.81,12.32c-5.3,3.929-14.407,4.108-14.407,4.108a22.6,22.6,0,0,1-14.847-4.821c-6.75-5.513-7.332-11.808-6.692-14.453a14.671,14.671,0,0,0-.149-5.885h11.772s-.142,6.007,0,7.4.663,7.689,9.915,7.5,10.106-5.75,10.129-7.5,0-7.4,0-7.4V716.7h11.088Z" transform="translate(-719.237 -707.6)" fill="#fff" stroke="#fff" stroke-width="2"/>
        <path id="Path_11" data-name="Path 11" d="M824.518,724.023l-6.356,8.467-.027-.014a30.287,30.287,0,0,0-5.082-4.217,23.662,23.662,0,0,0-6.078-1.857,12.692,12.692,0,0,0-4.2.415,5.993,5.993,0,0,0-3.132,2.579,4.686,4.686,0,0,0-.656,3.094,9.333,9.333,0,0,0,2.182,4.282,15.173,15.173,0,0,0,4.751,2.955,65.915,65.915,0,0,1,9.815,5.15c3.876,2.666,5.046,4.368,5.69,5.516a20.761,20.761,0,0,1,2.486,11.364c-.555,5.4-4.7,10.244-4.7,10.244a19.011,19.011,0,0,1-11.042,5.617c-6.606.683-11.766-.2-15.382-2.091s-8.536-6.947-8.536-6.947l6.259-8.868,3.289,3.456a23.532,23.532,0,0,0,7.945,3.386c4.828,1.106,7.411-.727,7.411-.727s3.087-2.463,3.087-5.3-.562-3.947-3.087-6.042-13.229-7.093-16.036-9.077A16.27,16.27,0,0,1,786.86,732.3a15.307,15.307,0,0,1,5.922-12.391,16.4,16.4,0,0,1,7.795-3.734,23.991,23.991,0,0,1,8.572-.158,34.042,34.042,0,0,1,8.577,2.82A28.424,28.424,0,0,1,824.518,724.023Z" transform="translate(-727.237 -711.818)" fill="#fff" stroke="#fff" stroke-width="2"/>
      </g>
      <g id="Group_17-2" data-name="Group 17" transform="translate(358.584 212.302)">
        <path id="Path_19" data-name="Path 19" d="M549.937,697.864h62.534l-5.088,79.2-28.131,8.961-27.39-11.948V751.838" transform="translate(-549.937 -697.864)" fill="none" stroke="#fff" stroke-width="10"/>
        <path id="Path_20" data-name="Path 20" d="M610.573,720.242l-59.851-.98" transform="translate(-549.938 -682.76)" fill="none" stroke="#fff" stroke-width="9"/>
      </g>
    </g>
  </g>
</svg>
